<svg class="diagram-root" style="background: #f5f6f6" xmlns="http://www.w3.org/2000/svg" xmlns:xlink="http://www.w3.org/1999/xlink"><style>.diagram-root { font-family: "Helvetica Neue", sans-serif; font-size: 12px; } .t { overflow: visible; } .t-bg { y: 40; fill: #fff;   } .th { fill: #005aa0;   } .tht { fill: #fff; font-size: 14px;  } .tf { fill: #323c46; overflow: visible; } .tf.pk { fill: #005aa0; font-weight: bold; } .tf.fk { font-weight: bold; } .ty { fill: #adb1b5; font-weight: normal; text-anchor: end; } .r { fill: transparent; stroke: #c3c3c3; stroke-width: 1; } .l { stroke: 1; } .i { fill: #c2c7ce; stroke: #c2c7ce; } .i.ix { fill: #afb3b6; stroke: #000; } .fa { fill: transparent; overflow: visible; } .fa .bg.hover { fill: #f7f7f7; } .c { cy: 12; r: 4; stroke: #d2d2dc; fill: #d2d2dc; } .hr { fill: transparent; stroke: #323c46; stroke-opacity: 0.035; stroke-width: 13; } .dc { stroke: #fa5a3c; fill: #fa5a3c; } .x { stroke: white; stroke-width: 1; } .hl .th { fill: #1b9bff; } .hl .tht {  } .fhl .bg { fill: #e7f4ff; } .fhls .bg {  } .r.hl { stroke: #1b9bff; } .dim { opacity: 0.25; }</style><g class="drawing-wrapper" transform="translate(104, 46.5) scale(1,1)"><g class="rs"><path d="M 67.39 40.5 m -1, 0 a 1,1 0 1,0 2,0 a 1,1 0 1,0 -2,0 M 67.39 40.5 m -0.5, 0 a 0.5,0.5 0 1,0 1,0 a 0.5,0.5 0 1,0 -1,0  M67.39 40.5 L67.39 40.5 79.39 40.5 M73.39 46.5 L73.39 46.5 73.39 34.5 M79.39 40.5 Q 131.79 40.5, 184.2 67.75 T 289 95 M 301 95 m -1, 0 a 1,1 0 1,0 2,0 a 1,1 0 1,0 -2,0 M 301 95 m -0.5, 0 a 0.5,0.5 0 1,0 1,0 a 0.5,0.5 0 1,0 -1,0  M301 95 L301 95 289 95 M295 101 L295 101 295 89" id="h1248511120" class="r"></path><path d="M 212.04 358 m -1, 0 a 1,1 0 1,0 2,0 a 1,1 0 1,0 -2,0 M 212.04 358 m -0.5, 0 a 0.5,0.5 0 1,0 1,0 a 0.5,0.5 0 1,0 -1,0  M212.04 358 L212.04 358 224.04 358 M218.04 364 L218.04 364 218.04 352 M224.04 358 Q 240.28 358, 256.52 226.5 T 289 95 M 301 95 m -1, 0 a 1,1 0 1,0 2,0 a 1,1 0 1,0 -2,0 M 301 95 m -0.5, 0 a 0.5,0.5 0 1,0 1,0 a 0.5,0.5 0 1,0 -1,0  M301 95 L301 95 289 95 M295 101 L295 101 295 89" id="h2773689332" class="r"></path><path d="M 301 120 m -1, 0 a 1,1 0 1,0 2,0 a 1,1 0 1,0 -2,0 M 301 120 m -0.5, 0 a 0.5,0.5 0 1,0 1,0 a 0.5,0.5 0 1,0 -1,0  M301 120 L301 120 289 120 M295 126 L295 126 295 114 M289 120 Q 272.76 120, 256.52 239 T 224.04 358 M 212.04 358 m -1, 0 a 1,1 0 1,0 2,0 a 1,1 0 1,0 -2,0 M 212.04 358 m -0.5, 0 a 0.5,0.5 0 1,0 1,0 a 0.5,0.5 0 1,0 -1,0  M212.04 358 L212.04 358 224.04 358 M218.04 364 L218.04 364 218.04 352" id="h3782856632" class="r"></path><path d="M 276 360 m -1, 0 a 1,1 0 1,0 2,0 a 1,1 0 1,0 -2,0 M 276 360 m -0.5, 0 a 0.5,0.5 0 1,0 1,0 a 0.5,0.5 0 1,0 -1,0  M276 360 L276 360 264 360 M270 366 L270 366 270 354 M264 360 Q 217.85 360, 171.7 200.25 T 79.39 40.5 M 67.39 40.5 m -1, 0 a 1,1 0 1,0 2,0 a 1,1 0 1,0 -2,0 M 67.39 40.5 m -0.5, 0 a 0.5,0.5 0 1,0 1,0 a 0.5,0.5 0 1,0 -1,0  M67.39 40.5 L67.39 40.5 79.39 40.5 M 67.39 46.5 m -1, 0 a 1,1 0 1,0 2,0 a 1,1 0 1,0 -2,0 M 67.39 46.5 m -0.5, 0 a 0.5,0.5 0 1,0 1,0 a 0.5,0.5 0 1,0 -1,0  M67.39 46.5 L67.39 46.5 74.39 40.5 67.39 34.5 M 67.39 34.5 m -1, 0 a 1,1 0 1,0 2,0 a 1,1 0 1,0 -2,0 M 67.39 34.5 m -0.5, 0 a 0.5,0.5 0 1,0 1,0 a 0.5,0.5 0 1,0 -1,0 " id="h1882043173" class="r"></path><path d="M 276 385 m -1, 0 a 1,1 0 1,0 2,0 a 1,1 0 1,0 -2,0 M 276 385 m -0.5, 0 a 0.5,0.5 0 1,0 1,0 a 0.5,0.5 0 1,0 -1,0  M276 385 L276 385 264 385 M270 391 L270 391 270 379 M264 385 C -115.60000000000002 385, 8 358, 58 358 M 70 358 m -1, 0 a 1,1 0 1,0 2,0 a 1,1 0 1,0 -2,0 M 70 358 m -0.5, 0 a 0.5,0.5 0 1,0 1,0 a 0.5,0.5 0 1,0 -1,0  M70 358 L70 358 58 358 M 70 364 m -1, 0 a 1,1 0 1,0 2,0 a 1,1 0 1,0 -2,0 M 70 364 m -0.5, 0 a 0.5,0.5 0 1,0 1,0 a 0.5,0.5 0 1,0 -1,0  M70 364 L70 364 63 358 70 352 M 70 352 m -1, 0 a 1,1 0 1,0 2,0 a 1,1 0 1,0 -2,0 M 70 352 m -0.5, 0 a 0.5,0.5 0 1,0 1,0 a 0.5,0.5 0 1,0 -1,0 " id="h1277105345" class="r"></path><path d="M 77 597 m -1, 0 a 1,1 0 1,0 2,0 a 1,1 0 1,0 -2,0 M 77 597 m -0.5, 0 a 0.5,0.5 0 1,0 1,0 a 0.5,0.5 0 1,0 -1,0  M77 597 L77 597 65 597 M71 603 L71 603 71 591 M65 597 C 3.799999999999999 597, 8 358, 58 358 M 70 358 m -1, 0 a 1,1 0 1,0 2,0 a 1,1 0 1,0 -2,0 M 70 358 m -0.5, 0 a 0.5,0.5 0 1,0 1,0 a 0.5,0.5 0 1,0 -1,0  M70 358 L70 358 58 358 M 70 364 m -1, 0 a 1,1 0 1,0 2,0 a 1,1 0 1,0 -2,0 M 70 364 m -0.5, 0 a 0.5,0.5 0 1,0 1,0 a 0.5,0.5 0 1,0 -1,0  M70 364 L70 364 63 358 70 352 M 70 352 m -1, 0 a 1,1 0 1,0 2,0 a 1,1 0 1,0 -2,0 M 70 352 m -0.5, 0 a 0.5,0.5 0 1,0 1,0 a 0.5,0.5 0 1,0 -1,0 " id="h221257298" class="r"></path><path d="M 268 600 m -1, 0 a 1,1 0 1,0 2,0 a 1,1 0 1,0 -2,0 M 268 600 m -0.5, 0 a 0.5,0.5 0 1,0 1,0 a 0.5,0.5 0 1,0 -1,0  M268 600 L268 600 256 600 M262 606 L262 606 262 594 M256 600 C -110.80000000000001 600, 8 358, 58 358 M 70 358 m -1, 0 a 1,1 0 1,0 2,0 a 1,1 0 1,0 -2,0 M 70 358 m -0.5, 0 a 0.5,0.5 0 1,0 1,0 a 0.5,0.5 0 1,0 -1,0  M70 358 L70 358 58 358 M 70 364 m -1, 0 a 1,1 0 1,0 2,0 a 1,1 0 1,0 -2,0 M 70 364 m -0.5, 0 a 0.5,0.5 0 1,0 1,0 a 0.5,0.5 0 1,0 -1,0  M70 364 L70 364 63 358 70 352 M 70 352 m -1, 0 a 1,1 0 1,0 2,0 a 1,1 0 1,0 -2,0 M 70 352 m -0.5, 0 a 0.5,0.5 0 1,0 1,0 a 0.5,0.5 0 1,0 -1,0 " id="h1168633520" class="r"></path></g><g class="hrs"></g><g class="ts"><svg width="149.39" height="100" x="-82" y="-16.5" id="h3708248841" class="t"><rect height="40" width="149.39" class="th"></rect><text x="13" y="25" class="tht">Departments</text><rect height="60" width="149.39" class="t-bg" y="40"></rect><text x="13" y="61" class="tf pk">dept_no<tspan x="136.39" class="ty">varchar</tspan></text><path d="M7,14A2,2 0 0,1 5,12A2,2 0 0,1 7,10A2,2 0 0,1 9,12A2,2 0 0,1 7,14M12.65,10C11.83,7.67 9.61,6 7, 6A6, 6 0 0, 0 1, 12A6, 6 0 0, 0 7, 18C9.61, 18 11.83, 16.33 12.65, 14H17V18H21V14H23V10H12.65Z" class="i pk" transform="translate(76.37632812499999, 48) scale(0.65)"></path><text x="13" y="86" class="tf">dept_name<tspan x="136.39" class="ty">varchar</tspan></text></svg><svg width="142.04" height="200" x="70" y="301" id="h3299212598" class="t"><rect height="40" width="142.04" class="th"></rect><text x="13" y="25" class="tht">Employees</text><rect height="160" width="142.04" class="t-bg" y="40"></rect><text x="13" y="61" class="tf pk">emp_no<tspan x="129.04" class="ty">int</tspan></text><path d="M7,14A2,2 0 0,1 5,12A2,2 0 0,1 7,10A2,2 0 0,1 9,12A2,2 0 0,1 7,14M12.65,10C11.83,7.67 9.61,6 7, 6A6, 6 0 0, 0 1, 12A6, 6 0 0, 0 7, 18C9.61, 18 11.83, 16.33 12.65, 14H17V18H21V14H23V10H12.65Z" class="i pk" transform="translate(96.36617187499999, 48) scale(0.65)"></path><text x="13" y="86" class="tf">birth_date<tspan x="129.04" class="ty">date</tspan></text><text x="13" y="111" class="tf">first_name<tspan x="129.04" class="ty">varchar</tspan></text><text x="13" y="136" class="tf">last_name<tspan x="129.04" class="ty">varchar</tspan></text><text x="13" y="161" class="tf">gender<tspan x="129.04" class="ty">varchar</tspan></text><text x="13" y="186" class="tf">hire_date<tspan x="129.04" class="ty">date</tspan></text></svg><svg width="149.39" height="150" x="301" y="38" id="h526843498" class="t"><rect height="40" width="149.39" class="th"></rect><text x="13" y="25" class="tht">Managers</text><rect height="110" width="149.39" class="t-bg" y="40"></rect><text x="13" y="61" class="tf pk">dept_no<tspan x="136.39" class="ty">varchar</tspan></text><path d="M7,14A2,2 0 0,1 5,12A2,2 0 0,1 7,10A2,2 0 0,1 9,12A2,2 0 0,1 7,14M12.65,10C11.83,7.67 9.61,6 7, 6A6, 6 0 0, 0 1, 12A6, 6 0 0, 0 7, 18C9.61, 18 11.83, 16.33 12.65, 14H17V18H21V14H23V10H12.65Z" class="i pk" transform="translate(76.37632812499999, 48) scale(0.65)"></path><text x="13" y="86" class="tf pk">emp_no<tspan x="136.39" class="ty">int</tspan></text><path d="M7,14A2,2 0 0,1 5,12A2,2 0 0,1 7,10A2,2 0 0,1 9,12A2,2 0 0,1 7,14M12.65,10C11.83,7.67 9.61,6 7, 6A6, 6 0 0, 0 1, 12A6, 6 0 0, 0 7, 18C9.61, 18 11.83, 16.33 12.65, 14H17V18H21V14H23V10H12.65Z" class="i pk" transform="translate(103.71617187499999, 73) scale(0.65)"></path><text x="13" y="111" class="tf">from_date<tspan x="136.39" class="ty">date</tspan></text><text x="13" y="136" class="tf">to_date<tspan x="136.39" class="ty">date</tspan></text></svg><svg width="149.39" height="150" x="276" y="303" id="h3353995054" class="t"><rect height="40" width="149.39" class="th"></rect><text x="13" y="25" class="tht">Dept_Emp</text><rect height="110" width="149.39" class="t-bg" y="40"></rect><text x="13" y="61" class="tf pk">dept_no<tspan x="136.39" class="ty">varchar</tspan></text><path d="M7,14A2,2 0 0,1 5,12A2,2 0 0,1 7,10A2,2 0 0,1 9,12A2,2 0 0,1 7,14M12.65,10C11.83,7.67 9.61,6 7, 6A6, 6 0 0, 0 1, 12A6, 6 0 0, 0 7, 18C9.61, 18 11.83, 16.33 12.65, 14H17V18H21V14H23V10H12.65Z" class="i pk" transform="translate(76.37632812499999, 48) scale(0.65)"></path><text x="13" y="86" class="tf pk">emp_no<tspan x="136.39" class="ty">int</tspan></text><path d="M7,14A2,2 0 0,1 5,12A2,2 0 0,1 7,10A2,2 0 0,1 9,12A2,2 0 0,1 7,14M12.65,10C11.83,7.67 9.61,6 7, 6A6, 6 0 0, 0 1, 12A6, 6 0 0, 0 7, 18C9.61, 18 11.83, 16.33 12.65, 14H17V18H21V14H23V10H12.65Z" class="i pk" transform="translate(103.71617187499999, 73) scale(0.65)"></path><text x="13" y="111" class="tf">from_date<tspan x="136.39" class="ty">date</tspan></text><text x="13" y="136" class="tf">to_date<tspan x="136.39" class="ty">date</tspan></text></svg><svg width="123.38" height="150" x="77" y="540" id="h3858243705" class="t"><rect height="40" width="123.38" class="th"></rect><text x="13" y="25" class="tht">Salaries</text><rect height="110" width="123.38" class="t-bg" y="40"></rect><text x="13" y="61" class="tf pk">emp_no<tspan x="110.38" class="ty">int</tspan></text><path d="M7,14A2,2 0 0,1 5,12A2,2 0 0,1 7,10A2,2 0 0,1 9,12A2,2 0 0,1 7,14M12.65,10C11.83,7.67 9.61,6 7, 6A6, 6 0 0, 0 1, 12A6, 6 0 0, 0 7, 18C9.61, 18 11.83, 16.33 12.65, 14H17V18H21V14H23V10H12.65Z" class="i pk" transform="translate(77.706171875, 48) scale(0.65)"></path><text x="13" y="86" class="tf">salary<tspan x="110.38" class="ty">int</tspan></text><text x="13" y="111" class="tf">from_date<tspan x="110.38" class="ty">date</tspan></text><text x="13" y="136" class="tf">to_date<tspan x="110.38" class="ty">date</tspan></text></svg><svg width="143.38" height="150" x="268" y="543" id="h3517680912" class="t"><rect height="40" width="143.38" class="th"></rect><text x="13" y="25" class="tht">Titles</text><rect height="110" width="143.38" class="t-bg" y="40"></rect><text x="13" y="61" class="tf pk">emp_no<tspan x="130.38" class="ty">int</tspan></text><path d="M7,14A2,2 0 0,1 5,12A2,2 0 0,1 7,10A2,2 0 0,1 9,12A2,2 0 0,1 7,14M12.65,10C11.83,7.67 9.61,6 7, 6A6, 6 0 0, 0 1, 12A6, 6 0 0, 0 7, 18C9.61, 18 11.83, 16.33 12.65, 14H17V18H21V14H23V10H12.65Z" class="i pk" transform="translate(97.706171875, 48) scale(0.65)"></path><text x="13" y="86" class="tf pk">title<tspan x="130.38" class="ty">varchar</tspan></text><path d="M7,14A2,2 0 0,1 5,12A2,2 0 0,1 7,10A2,2 0 0,1 9,12A2,2 0 0,1 7,14M12.65,10C11.83,7.67 9.61,6 7, 6A6, 6 0 0, 0 1, 12A6, 6 0 0, 0 7, 18C9.61, 18 11.83, 16.33 12.65, 14H17V18H21V14H23V10H12.65Z" class="i pk" transform="translate(70.366328125, 73) scale(0.65)"></path><text x="13" y="111" class="tf pk">from_date<tspan x="130.38" class="ty">date</tspan></text><path d="M7,14A2,2 0 0,1 5,12A2,2 0 0,1 7,10A2,2 0 0,1 9,12A2,2 0 0,1 7,14M12.65,10C11.83,7.67 9.61,6 7, 6A6, 6 0 0, 0 1, 12A6, 6 0 0, 0 7, 18C9.61, 18 11.83, 16.33 12.65, 14H17V18H21V14H23V10H12.65Z" class="i pk" transform="translate(87.02453125, 98) scale(0.65)"></path><text x="13" y="136" class="tf">to_date<tspan x="130.38" class="ty">date</tspan></text></svg></g></g><text class="qdbd-link" x="10" y="20">www.quickdatabasediagrams.com</text></svg>